<?xml version="1.0" standalone="no"?>
<!DOCTYPE svg PUBLIC "-//W3C//DTD SVG 20010904//EN"
 "http://www.w3.org/TR/2001/REC-SVG-20010904/DTD/svg10.dtd">
<svg version="1.0" xmlns="http://www.w3.org/2000/svg"
 width="700.000000pt" height="700.000000pt" viewBox="0 0 700.000000 700.000000"
 preserveAspectRatio="xMidYMid meet">
<metadata>
Created by potrace 1.14, written by Peter Selinger 2001-2017
</metadata>
<g transform="translate(0.000000,700.000000) scale(0.100000,-0.100000)"
fill="#000000" stroke="none">
<path d="M3280 6994 c-19 -2 -84 -9 -145 -14 -578 -56 -1180 -283 -1660 -625
-237 -169 -531 -446 -709 -670 -416 -521 -673 -1147 -748 -1820 -17 -155 -17
-575 0 -730 52 -469 198 -931 418 -1327 290 -523 731 -983 1239 -1294 439
-269 920 -432 1460 -496 145 -17 576 -17 730 0 822 91 1556 447 2131 1034 203
206 348 390 487 618 274 449 433 916 499 1465 16 136 16 592 0 730 -86 725
-352 1347 -803 1885 -122 145 -351 370 -494 484 -510 407 -1117 661 -1775 742
-117 15 -553 27 -630 18z m22 -1454 c78 -22 115 -109 78 -185 -35 -73 -45 -75
-375 -75 -269 0 -287 -1 -280 -17 17 -44 67 -249 86 -358 17 -94 23 -175 26
-372 l5 -253 653 0 653 0 128 203 c70 111 132 208 139 215 8 9 51 12 167 10
l156 -3 -165 -260 -165 -259 53 -131 c30 -71 78 -191 109 -265 l55 -135 140 3
c225 5 398 -43 571 -157 223 -148 376 -370 429 -627 21 -100 21 -294 1 -389
-88 -414 -419 -727 -830 -784 -105 -15 -184 -14 -293 4 -445 72 -783 435 -822
883 -33 381 145 730 476 934 l71 44 -86 210 c-48 115 -91 215 -95 222 -6 9
-156 12 -692 12 -376 0 -686 -4 -689 -8 -3 -5 -14 -55 -26 -113 -11 -57 -34
-154 -50 -216 -17 -62 -30 -116 -30 -121 0 -5 30 -28 66 -52 146 -94 264 -230
344 -395 63 -128 91 -240 98 -382 21 -467 -282 -880 -733 -999 -84 -22 -123
-27 -240 -28 -186 -1 -294 24 -455 104 -249 125 -443 369 -512 646 -33 133
-31 341 5 477 83 314 319 573 618 679 131 46 237 61 379 55 69 -3 135 -9 146
-12 19 -6 23 1 43 73 142 527 145 1030 8 1455 l-33 102 -325 5 c-359 6 -361 6
-395 72 -22 42 -14 111 17 145 50 54 29 52 809 53 465 0 738 -4 762 -10z"/>
<path d="M2125 3379 c-224 -33 -422 -174 -530 -379 -153 -291 -73 -674 182
-875 242 -189 550 -213 808 -63 83 49 206 170 253 250 45 76 80 180 94 278 20
143 -17 320 -94 447 -41 68 -131 168 -190 210 l-45 32 -42 -107 c-50 -123
-179 -387 -237 -482 -32 -53 -47 -68 -85 -84 -42 -17 -51 -17 -90 -5 -56 18
-89 65 -89 126 0 36 12 66 60 152 62 111 171 342 208 442 l21 56 -61 7 c-70 7
-82 7 -163 -5z"/>
<path d="M4747 3383 c-3 -5 57 -162 133 -349 77 -186 140 -352 140 -367 0 -59
-53 -121 -114 -132 -46 -9 -111 20 -134 59 -11 17 -81 183 -157 369 -76 185
-143 337 -149 337 -21 0 -111 -67 -169 -126 -233 -235 -274 -598 -99 -874 135
-213 352 -334 602 -334 170 0 310 49 441 154 87 70 142 139 195 245 59 118 77
209 71 345 -14 308 -220 567 -517 649 -83 23 -234 38 -243 24z"/>
</g>
</svg>
